<?xml version="1.0" encoding="UTF-8"?>
<svg version="1.1" xmlns="http://www.w3.org/2000/svg" width="512" height="512">
<path d="M0 0 C-1.70934908 3.55172144 -3.78112443 6.57442665 -6.125 9.75 C-6.84945313 10.73484375 -7.57390625 11.7196875 -8.3203125 12.734375 C-8.87460937 13.48203125 -9.42890625 14.2296875 -10 15 C-14.65231558 14.43604952 -18.13910277 12.38913912 -22.06640625 9.9921875 C-22.74114487 9.58847931 -23.41588348 9.18477112 -24.11106873 8.76882935 C-26.26572724 7.47770183 -28.41420169 6.1766771 -30.5625 4.875 C-31.97940487 4.02275076 -33.39671915 3.17118179 -34.81445312 2.3203125 C-37.58048618 0.65955715 -40.34589324 -1.00223149 -43.11083984 -2.66479492 C-44.40713077 -3.44335613 -45.7035138 -4.22176401 -47 -5 C-47.59508362 -5.3575235 -48.19016724 -5.715047 -48.80328369 -6.08340454 C-50.43231888 -7.05923112 -52.06565571 -8.02786601 -53.69921875 -8.99609375 C-54.60373779 -9.53419678 -55.50825684 -10.0722998 -56.44018555 -10.62670898 C-66.59613267 -16.07517847 -79.93722634 -16.85548691 -91.0625 -14 C-104.05898811 -9.27787175 -115.82267904 -1.15274058 -127.55419922 6.02392578 C-136.65831138 11.59255962 -145.81405256 17.06754589 -155 22.5 C-165.24675592 28.56298929 -175.45797024 34.6792239 -185.625 40.875 C-193.88521955 45.90855328 -202.16541169 50.90291236 -210.5 55.8125 C-211.38083252 56.33199219 -212.26166504 56.85148437 -213.16918945 57.38671875 C-216.69013548 59.46252725 -220.21161665 61.53737862 -223.73681641 63.60595703 C-226.43224611 65.18973125 -229.12274963 66.78160434 -231.8125 68.375 C-232.6065625 68.8388208 -233.400625 69.3026416 -234.21875 69.78051758 C-247.26071415 77.53456311 -256.3705587 86.19076572 -261 101 C-262.03732125 105.20065301 -262.14830257 109.27954032 -262.14717102 113.58180237 C-262.15084771 114.33714844 -262.1545244 115.09249452 -262.1583125 115.87072986 C-262.1693109 118.3976322 -262.17318666 120.92449336 -262.17700195 123.45141602 C-262.18326959 125.26517364 -262.18991666 127.07892998 -262.19691467 128.89268494 C-262.21792481 134.84641633 -262.22831544 140.80014789 -262.23828125 146.75390625 C-262.24233019 148.80693004 -262.24644716 150.8599537 -262.25063133 152.91297722 C-262.26967771 162.56120543 -262.28390891 172.20942602 -262.2922433 181.85766941 C-262.30200861 192.97751886 -262.32831208 204.09716888 -262.36874419 215.21694809 C-262.39895607 223.82268709 -262.41371706 232.42836909 -262.41702431 241.03416008 C-262.41936933 246.16873815 -262.42825813 251.30310303 -262.45348549 256.43762398 C-262.47685954 261.27302146 -262.48096206 266.10806679 -262.47072411 270.94350624 C-262.47023087 272.71068243 -262.47648813 274.4778765 -262.49028015 276.24499893 C-262.5798145 288.40467488 -261.58861881 299.15665173 -254.875 309.75 C-254.37742187 310.56984375 -253.87984375 311.3896875 -253.3671875 312.234375 C-246.47705293 320.28423519 -237.23489489 325.4971818 -228.17333984 330.75 C-225.33759753 332.39398696 -222.51224228 334.05547488 -219.68621826 335.71609497 C-218.23296526 336.57000479 -216.7792288 337.42309233 -215.32501221 338.27536011 C-208.50450744 342.27652118 -201.74784914 346.37785847 -195 350.5 C-183.41992935 357.56181327 -171.77364893 364.50756579 -160.09570312 371.40625 C-152.01024056 376.18630934 -143.98696981 381.0564315 -136 386 C-131.94702358 388.50259681 -127.88908 390.99693421 -123.82543945 393.48217773 C-122.65064859 394.20208489 -121.47714114 394.92409062 -120.30493164 395.64819336 C-102.91133832 406.38709895 -86.80211141 415.16151919 -65.72265625 411.41796875 C-50.92595948 406.97287054 -37.46241274 396.90152795 -24.39453125 388.92504883 C-15.30448654 383.37900353 -6.16473333 377.92159784 3 372.5 C13.10250606 366.52251588 23.16772115 360.49013102 33.1875 354.375 C44.09886096 347.71671698 55.09110047 341.20928422 66.1472168 334.79443359 C91.25973347 320.20018011 91.25973347 320.20018011 105.33257294 295.56084633 C106.48510326 291.13871063 106.57385647 286.75652961 106.67480469 282.20581055 C106.70775005 281.13462573 106.74069542 280.06344091 106.77463913 278.95979595 C107.18251698 264.05247052 107.18361367 249.13516624 107.20018864 234.22332597 C107.20316149 231.67575963 107.20727244 229.12819737 107.21169281 226.58063316 C107.2252676 218.56631112 107.23499059 210.55199885 107.2388947 202.53766614 C107.24339415 193.36110043 107.26107116 184.18468225 107.2898953 175.00816137 C107.31158001 167.85165609 107.32160208 160.69519225 107.32293582 153.53865451 C107.32397612 149.28966076 107.32972064 145.04080764 107.34775543 140.79184914 C107.36436203 136.80489185 107.36633145 132.81817943 107.35761642 128.83119965 C107.35685358 127.38091304 107.36108762 125.93061245 107.37107468 124.48036003 C107.46200957 110.43908632 105.84375788 97.90221968 98 86 C97.60554688 85.37867188 97.21109375 84.75734375 96.8046875 84.1171875 C89.91262187 74.79772769 77.05260011 68.83120111 67.09765625 63.375 C66.40542969 62.92125 65.71320313 62.4675 65 62 C65 61.34 65 60.68 65 60 C65.66 60 66.32 60 67 60 C67.25523437 59.43796875 67.51046875 58.8759375 67.7734375 58.296875 C69.15692781 55.70613518 70.79938583 53.54892155 72.625 51.25 C73.57246094 50.05117187 73.57246094 50.05117187 74.5390625 48.828125 C75.26222656 47.92320313 75.26222656 47.92320313 76 47 C91.21191701 50.24453652 107.70870143 64.43158335 116 77 C118.60882158 81.5615009 120.96931222 86.14691325 123 91 C123.26141533 91.62262883 123.52283066 92.24525766 123.79216766 92.88675404 C126.92117513 101.60936824 126.43666634 110.66530567 126.41992188 119.79760742 C126.42727075 121.69590756 126.43585935 123.59420324 126.44558716 125.49249268 C126.46772928 130.62708131 126.47073738 135.76150909 126.46883965 140.89613891 C126.46871957 145.194859 126.47729907 149.49354548 126.48561716 153.79225618 C126.50482619 163.9426632 126.50774468 174.09298799 126.50097656 184.2434082 C126.49434246 194.68398459 126.51718065 205.1242071 126.55429029 215.56471175 C126.58507368 224.5544783 126.59633783 233.54413153 126.59245348 242.53394967 C126.59039436 247.89157393 126.59573487 253.24892288 126.62034607 258.60649681 C126.64275285 263.65053285 126.64062041 268.69399751 126.62041855 273.73803711 C126.61703266 275.57812769 126.62199175 277.41825779 126.63640213 279.25829506 C126.78116863 299.13132151 121.47584704 315.78786756 107.57128906 330.65234375 C97.13988046 341.1866262 83.22677964 347.88321112 70.52001953 355.26831055 C61.95253296 360.24903155 53.45537572 365.33148926 45 370.5 C35.55757203 376.26809512 26.05925826 381.92770465 16.5 387.5 C7.3943542 392.80817048 -1.66407067 398.18406386 -10.66427612 403.66931152 C-12.42208208 404.74060357 -14.18074359 405.81047642 -15.93969727 406.87988281 C-16.50946793 407.2263385 -17.07923859 407.57279419 -17.66627502 407.92974854 C-18.51209389 408.44405426 -18.51209389 408.44405426 -19.375 408.96875 C-22.63482261 410.951177 -25.89371561 412.93498982 -29.1484375 414.92578125 C-50.25670761 427.81322123 -68.71847628 435.64157677 -94.05859375 431.45703125 C-110.18031265 427.41235972 -124.70648846 416.43150696 -138.70751953 407.87426758 C-147.76153358 402.34152798 -156.86751428 396.90209048 -166 391.5 C-177.46333184 384.71576949 -188.87777053 377.85662774 -200.25463867 370.9284668 C-206.92635817 366.86560679 -213.60979314 362.82400937 -220.3125 358.8125 C-221.89196993 357.86335255 -223.47139698 356.91413374 -225.05078125 355.96484375 C-228.66374828 353.79500612 -232.28922168 351.6472355 -235.91796875 349.50390625 C-257.20272289 336.85787703 -274.65741165 323.59875923 -281.35186958 298.47786903 C-282.7122225 291.17821271 -282.42453535 283.74947981 -282.40405273 276.34838867 C-282.40976384 274.47787571 -282.41673095 272.60736624 -282.42485046 270.73686218 C-282.44271703 265.682965 -282.44162553 260.62924208 -282.43590808 255.57532287 C-282.43280622 251.34356396 -282.43891988 247.11183805 -282.44494683 242.88008386 C-282.45896966 232.88934737 -282.45744998 222.89869643 -282.44604492 212.90795898 C-282.43457109 202.63041186 -282.44863223 192.35312591 -282.4754414 182.0756132 C-282.49765648 173.22512109 -282.50422256 164.37471062 -282.49836498 155.52419263 C-282.49500746 150.24993813 -282.49732974 144.97585093 -282.51461601 139.7016201 C-282.53017547 134.73806624 -282.5260305 129.77489667 -282.50731087 124.8113575 C-282.5036495 122.99987736 -282.506661 121.18836818 -282.51719666 119.37691498 C-282.62231362 99.79362425 -278.2962822 83.23750808 -264.6015625 68.51171875 C-263.74304688 67.68285156 -262.88453125 66.85398437 -262 66 C-261.41484619 65.42000244 -260.82969238 64.84000488 -260.22680664 64.24243164 C-253.59250204 57.96770154 -246.04286243 53.58783768 -238.1875 49.0625 C-236.03827422 47.80868433 -233.89127132 46.55111866 -231.74433899 45.29338074 C-230.28804483 44.4405276 -228.83108231 43.58881471 -227.37345886 42.73823547 C-221.0056187 39.01924848 -214.69757999 35.2071788 -208.40530396 31.36209106 C-196.11507388 23.85266857 -183.74564571 16.48148245 -171.34397888 9.15771484 C-164.86668575 5.33221469 -158.39638472 1.49495466 -151.92749023 -2.34472656 C-149.8877414 -3.55494033 -147.84723547 -4.76386965 -145.80664062 -5.97265625 C-139.4612803 -9.73451688 -133.13061705 -13.51713501 -126.8359375 -17.36328125 C-125.71977051 -18.04253662 -124.60360352 -18.72179199 -123.45361328 -19.42163086 C-121.40331987 -20.67177547 -119.35701072 -21.92849286 -117.31591797 -23.19360352 C-73.6264625 -49.79198778 -37.5611142 -24.08960742 0 0 Z " fill="#7C97E6" transform="translate(334,58)"/>
<path d="M0 0 C7.65230847 4.51820292 12.86224658 12.39486918 15.37698555 20.80620003 C15.97944925 23.35462009 16.51310933 25.90800887 17.02172852 28.47680664 C17.32261383 29.92472847 17.32261383 29.92472847 17.62957764 31.40190125 C18.28537627 34.56931564 18.92566166 37.73966573 19.56640625 40.91015625 C20.02313835 43.12422332 20.48107873 45.33804145 20.94017029 47.55162048 C22.14350222 53.36501846 23.33472426 59.18082079 24.52209473 64.99749756 C26.42364051 74.31054364 28.33652998 83.62120384 30.26280022 92.92916679 C30.93124107 96.1733214 31.59017248 99.41930838 32.24842834 102.6655426 C32.65945303 104.66130429 33.07084605 106.65699016 33.48266602 108.65258789 C33.66196152 109.54992645 33.84125702 110.44726501 34.02598572 111.37179565 C35.07738142 116.41418203 36.4863513 120.83893393 38.6875 125.5 C41.60380113 125.55749557 41.60380113 125.55749557 44.6875 124.5 C47.60503018 118.88527396 49.1287841 112.80834139 50.875 106.75 C64.02002227 62.59485145 64.02002227 62.59485145 81.3125 52.0625 C87.46312596 49.21498798 93.20935429 49.34645334 99.875 49.375 C100.78958984 49.37113281 101.70417969 49.36726563 102.64648438 49.36328125 C103.51982422 49.36457031 104.39316406 49.36585938 105.29296875 49.3671875 C106.08856201 49.36831543 106.88415527 49.36944336 107.70385742 49.37060547 C109.6875 49.5 109.6875 49.5 111.6875 50.5 C111.6875 56.77 111.6875 63.04 111.6875 69.5 C109.08875 69.4175 106.49 69.335 103.8125 69.25 C96.60862097 69.14345408 91.15277919 70.16005286 84.6875 73.5 C83.6975 73.83 82.7075 74.16 81.6875 74.5 C80.54598435 77.49366499 79.60192417 80.43447716 78.6875 83.5 C77.9355942 85.82050748 77.17868127 88.13939586 76.41796875 90.45703125 C75.78729651 92.40010589 75.15868342 94.34383965 74.53012085 96.28759766 C74.08893126 97.65126335 73.64704332 99.01470327 73.20449829 100.37792969 C71.01085136 107.13803467 68.8286629 113.89604037 66.875 120.73046875 C66.61565674 121.63498779 66.35631348 122.53950684 66.08911133 123.47143555 C65.63112019 125.09311564 65.18458703 126.71810115 64.75268555 128.34692383 C62.96274419 134.69436944 60.08575253 139.33572332 55.125 143.8125 C48.58389253 147.02358912 41.60282994 148.33892923 34.4375 146.625 C27.31159666 143.99424917 22.54313724 138.78481484 19.22485352 132.04907227 C15.76255017 124.13062969 14.47458015 115.69064059 12.94758415 107.23420525 C12.39196738 104.15738284 11.81899658 101.0842173 11.24183655 98.0113678 C10.22720253 92.59395791 9.22767754 87.17389189 8.23321533 81.75274658 C6.6410469 73.07419038 5.03624701 64.39809151 3.41159248 55.72555733 C2.85109115 52.71279978 2.30352033 49.69788977 1.75682068 46.68260193 C1.40996802 44.8181646 1.06258825 42.95382524 0.71459961 41.08959961 C0.49548416 39.85099686 0.49548416 39.85099686 0.27194214 38.58737183 C-0.96302141 32.08145842 -2.51391401 24.29858599 -7.3125 19.5 C-10.72749591 18.83292452 -10.72749591 18.83292452 -14.3125 19.5 C-17.4202155 23.41402595 -19.11006573 27.23417559 -20.57421875 31.98046875 C-20.96641602 33.21853271 -21.35861328 34.45659668 -21.76269531 35.73217773 C-21.96431274 36.37855194 -22.16593018 37.02492615 -22.37365723 37.69088745 C-25.44371 47.47739119 -28.66879661 57.1515641 -33.0625 66.4375 C-33.40240967 67.16799561 -33.74231934 67.89849121 -34.0925293 68.65112305 C-39.7453673 80.12373761 -49.37350069 87.20196025 -61.3125 91.5 C-65.52185401 92.75142957 -69.56773605 92.46967947 -73.91015625 92.2421875 C-76.86025537 92.5587835 -78.01435354 93.69398187 -80.3125 95.5 C-85.18978617 96.05066134 -87.29938273 96.05434718 -91.625 93.6875 C-97.67391736 88.76396262 -97.67391736 88.76396262 -98.25 84.25 C-98.6681437 79.1235583 -97.3871187 76.57179233 -94.3125 72.5 C-91.37936781 70.09064142 -88.1787333 70.15762508 -84.44921875 70.2265625 C-82.17840752 70.51715992 -80.46851056 71.15155129 -78.375 72.0625 C-73.79212244 73.92429401 -70.04567598 73.93283218 -65.3125 72.5 C-56.50581717 68.27162579 -50.94695697 61.2496455 -47.65209961 52.15795898 C-47.39565674 51.40458252 -47.13921387 50.65120605 -46.875 49.875 C-46.5869751 49.06812744 -46.2989502 48.26125488 -46.00219727 47.42993164 C-44.06829377 41.93542296 -42.3382712 36.38625162 -40.63452148 30.81689453 C-36.53333259 17.46623987 -32.61300732 6.97088666 -20.125 -0.375 C-13.53518731 -2.31953489 -6.42390529 -2.8120208 0 0 Z " fill="#6F9FE8" transform="translate(242.3125,187.5)"/>
<path d="M0 0 C3.88697012 3.35692874 5.44814904 6.30516481 6.1875 11.375 C5.47951443 16.2297582 3.20227831 19.19747704 -0.5625 22.25 C-5.30280406 24.23431333 -9.08213011 23.77771376 -13.875 22.125 C-17.2537872 20.98581964 -17.2537872 20.98581964 -20 22.875 C-25.70528901 29.21421001 -25.69054583 35.05341946 -25.69140625 43.203125 C-25.70461411 44.34730896 -25.71782196 45.49149292 -25.73143005 46.67034912 C-25.77224463 50.32192397 -25.79395953 53.97324912 -25.8125 57.625 C-25.83638259 61.26239054 -25.86469377 64.89954922 -25.90428162 68.5368042 C-25.92839305 70.7962031 -25.94345043 73.05572339 -25.94789124 75.31524658 C-26.07861762 88.67428066 -28.73201054 98.89858434 -37.7578125 109 C-39.72432524 110.81207457 -41.67820049 111.69422954 -44.25 112.375 C-44.25 113.035 -44.25 113.695 -44.25 114.375 C-43.13625 114.75011719 -43.13625 114.75011719 -42 115.1328125 C-39.00193866 116.48705044 -37.45201067 117.82601245 -35.25 120.25 C-34.610625 120.92804688 -33.97125 121.60609375 -33.3125 122.3046875 C-27.09478836 131.56059915 -25.53399782 140.26094146 -25.68359375 151.2421875 C-25.67795914 152.52054474 -25.67232452 153.79890198 -25.66651917 155.11599731 C-25.6501818 159.16107903 -25.66534689 163.20501019 -25.6875 167.25 C-25.70579226 171.31629751 -25.71319025 175.38193108 -25.69776917 179.44827271 C-25.68850704 181.96803009 -25.69759267 184.48793976 -25.72740173 187.00753784 C-25.71083306 195.49928306 -25.71083306 195.49928306 -21.25 202.375 C-17.52749412 204.85667059 -14.55787438 204.69724257 -10.25 204.375 C-9.38375 204.148125 -8.5175 203.92125 -7.625 203.6875 C-4.05790106 203.21814488 -2.23442581 204.47004736 0.75 206.375 C4.54804142 210.07039165 5.657119 213.08078292 5.75 218.375 C4.02325108 223.55524675 1.55971203 225.87764953 -3.25 228.375 C-7.61718393 229.66898042 -10.2805396 229.63052092 -14.3125 227.6875 C-17.74797563 225.76495498 -20.99634961 223.59025133 -24.25 221.375 C-25.384375 220.7975 -26.51875 220.22 -27.6875 219.625 C-34.94677999 215.50660054 -39.98000087 207.90140296 -43.25 200.375 C-44.13378768 196.72784672 -44.37423746 193.34135831 -44.37597656 189.59423828 C-44.37978333 188.45600616 -44.38359009 187.31777405 -44.38751221 186.14505005 C-44.38853943 184.92413666 -44.38956665 183.70322327 -44.390625 182.4453125 C-44.40894828 179.85025161 -44.42851815 177.25519927 -44.44921875 174.66015625 C-44.47955243 170.57627289 -44.50231924 166.49269821 -44.50048828 162.40869141 C-44.49954693 158.46222592 -44.53837057 154.51658381 -44.578125 150.5703125 C-44.5710553 149.35344757 -44.5639856 148.13658264 -44.55670166 146.88284302 C-44.65974541 139.69829159 -45.23793436 135.66126379 -50.25 130.375 C-53.36055765 128.30478241 -53.36055765 128.30478241 -56.75 126.8125 C-65.5926348 122.29604666 -65.5926348 122.29604666 -68.25 117.375 C-69.17800074 113.36102853 -69.09068493 110.0727256 -67.24609375 106.34765625 C-63.74989921 101.63626018 -60.13071996 100.53834673 -54.58984375 99.171875 C-50.67928293 97.84006464 -49.42865406 95.84722991 -47.25 92.375 C-44.86238424 86.8855967 -44.93807383 81.66137083 -44.90625 75.78125 C-44.8916272 74.75753296 -44.87700439 73.73381592 -44.86193848 72.67907715 C-44.81558847 69.41109118 -44.78135043 66.14316211 -44.75 62.875 C-44.34471367 21.17415414 -44.34471367 21.17415414 -34.125 10.8125 C-29.73602389 7.29121014 -24.72091685 4.89461861 -19.6875 2.4375 C-18.87200684 2.03523193 -18.05651367 1.63296387 -17.21630859 1.21850586 C-11.17740888 -1.59274831 -6.29056467 -3.14528234 0 0 Z " fill="#7B89E2" transform="translate(162.25,143.625)"/>
<path d="M0 0 C0.84385254 0.41266113 1.68770508 0.82532227 2.55712891 1.25048828 C13.1273435 6.56336322 18.51782461 11.60199343 22.5625 22.9375 C23.71842839 27.06315912 23.90133138 31.16895756 24.10546875 35.4296875 C24.14762009 36.26587616 24.18977142 37.10206482 24.23320007 37.96359253 C24.51708911 43.97795094 24.66195413 49.9875934 24.73828125 56.0078125 C24.75027557 56.83617615 24.7622699 57.66453979 24.77462769 58.51800537 C24.82284743 61.89191276 24.87084697 65.26542097 24.88842773 68.63964844 C24.58846673 81.92771521 24.58846673 81.92771521 29.5625 93.9375 C31.8858585 95.92895014 33.83724773 96.71914448 36.7421875 97.59375 C41.82873688 99.12805342 44.6416517 100.19112151 47.5625 104.9375 C49.1172669 108.04703379 48.84894437 110.50016761 48.5625 113.9375 C45.99000597 119.18538782 42.59862994 121.36347803 37.5625 123.9375 C31.14684606 127.45111982 26.97586624 130.69740127 24.5625 137.9375 C24.47083175 139.80168678 24.43737841 141.66896135 24.43652344 143.53540039 C24.43271667 144.68412125 24.42890991 145.8328421 24.42498779 147.01637268 C24.42396057 148.26007126 24.42293335 149.50376984 24.421875 150.78515625 C24.40823793 152.74390042 24.39457038 154.7026449 24.37916946 156.661376 C24.34128613 161.48774273 24.30987167 166.31384828 24.31201172 171.14038086 C24.31265008 173.8459278 24.30005281 176.55079811 24.27301025 179.25621033 C24.24784211 181.79935602 24.24117496 184.3427734 24.25579834 186.88600159 C24.10776865 197.44383357 20.88789488 205.27629832 13.71875 213.05859375 C10.25664537 216.07539144 6.37685993 218.21040106 2.35546875 220.3984375 C0.17513 221.59991088 -1.71854265 222.81285577 -3.6875 224.3125 C-7.25046526 226.41788856 -10.30324637 227.15248119 -14.4375 226.9375 C-18.58485449 225.42212047 -21.86469097 223.55849048 -24.4375 219.9375 C-25.59578632 215.70896158 -25.95477724 212.23069311 -24.3125 208.125 C-22.12429746 205.57209704 -20.2792988 203.77042172 -17.4375 201.9375 C-13.96717679 201.74193875 -10.76788582 201.88586173 -7.3203125 202.18164062 C-3.2153378 202.38688936 -1.71922436 202.17164591 1.5 199.49609375 C2.180625 198.65175781 2.86125 197.80742187 3.5625 196.9375 C3.8925 196.6075 4.2225 196.2775 4.5625 195.9375 C4.65964682 194.15995355 4.68765981 192.3785876 4.68847656 190.59838867 C4.69228333 189.45597214 4.69609009 188.3135556 4.70001221 187.13652039 C4.70155304 185.26489983 4.70155304 185.26489983 4.703125 183.35546875 C4.71676396 181.39937834 4.73043378 179.44328763 4.74583054 177.48721027 C4.78374467 172.65656456 4.81513735 167.82617274 4.81298828 162.99536133 C4.81234854 160.29337542 4.82501196 157.5920647 4.85198975 154.89021301 C4.87709926 152.34922342 4.8838609 149.80796285 4.86920166 147.26689148 C5.03221856 135.57752961 8.93381839 124.9232067 16.5625 115.9375 C18.81446101 114.00335607 21.02818587 112.50877476 23.5625 110.9375 C22.58410156 110.17179687 22.58410156 110.17179687 21.5859375 109.390625 C13.61032601 102.75604553 8.28875327 95.32654311 6.5625 84.9375 C6.46668951 83.09883047 6.41740221 81.25738065 6.40478516 79.41625977 C6.39452301 78.33486221 6.38426086 77.25346466 6.37368774 76.13929749 C6.36638641 74.98086838 6.35908508 73.82243927 6.3515625 72.62890625 C6.32350183 70.16600889 6.29483743 67.70311834 6.265625 65.24023438 C6.22432667 61.36482884 6.18742911 57.48955174 6.16113281 53.61401367 C6.13352909 49.86871236 6.08766705 46.12398603 6.0390625 42.37890625 C6.03580963 41.22250137 6.03255676 40.0660965 6.02920532 38.87464905 C5.92775169 32.2328284 5.43503672 27.54225196 1.16796875 22.1875 C-0.45359836 20.69021147 -0.45359836 20.69021147 -3.4375 18.9375 C-6.40767694 19.56560173 -6.40767694 19.56560173 -9.4375 20.9375 C-13.28346746 21.43815849 -16.60866851 21.26903259 -20.25 19.8125 C-23.1305515 17.34345586 -24.23166827 15.55499518 -25.4375 11.9375 C-25.64034449 7.33698705 -25.05391015 3.93650955 -22.625 0 C-15.40023806 -6.8119184 -8.01690676 -3.95538751 0 0 Z " fill="#6BB4ED" transform="translate(366.4375,147.0625)"/>
<path d="M0 0 C0.66 0 1.32 0 2 0 C2.20753906 1.13695313 2.41507812 2.27390625 2.62890625 3.4453125 C5.66549171 19.04386182 10.47570245 33.42960548 24.1875 42.6875 C33.70087592 48.41349954 43.03997514 50.67573626 54 52 C54 52.66 54 53.32 54 54 C53.030625 54.12375 52.06125 54.2475 51.0625 54.375 C43.27157342 55.51824445 36.42738324 57.30888923 29.375 60.875 C28.40046875 61.36613281 28.40046875 61.36613281 27.40625 61.8671875 C15.47292187 68.2052207 9.22255941 77.76982176 5 90.4375 C3.55906426 95.57083357 2.64886549 100.71223046 2 106 C1.34 106 0.68 106 0 106 C-0.08636719 105.12859375 -0.17273438 104.2571875 -0.26171875 103.359375 C-1.91129324 89.3758261 -6.48989898 76.47814525 -17.3515625 66.93359375 C-27.77084987 59.27624446 -38.44523657 56.08398907 -51 54 C-51 53.34 -51 52.68 -51 52 C-49.94941406 51.82984375 -48.89882813 51.6596875 -47.81640625 51.484375 C-40.10468261 50.17840917 -32.87185191 48.93059234 -26 45 C-24.88238281 44.36964844 -24.88238281 44.36964844 -23.7421875 43.7265625 C-12.07371978 36.56726535 -5.27741474 25.87808238 -1.6875 12.75 C-0.91023318 8.51036279 -0.37754418 4.29208126 0 0 Z " fill="#6B94EC" transform="translate(384,15)"/>
<path d="M0 0 C0.66 0 1.32 0 2 0 C2.15855469 0.72445312 2.31710937 1.44890625 2.48046875 2.1953125 C3.97978909 8.40796584 5.28152414 12.61072013 10 17 C14.14757727 19.52461225 18.34084122 20.78861872 23 22 C23 22.66 23 23.32 23 24 C22.43152344 24.08636719 21.86304688 24.17273438 21.27734375 24.26171875 C15.61924571 25.29132257 10.99446633 26.69427655 7 31 C4.40779484 35.34135272 2.64934328 39.96758955 2 45 C1.34 45 0.68 45 0 45 C-0.08636719 44.43152344 -0.17273438 43.86304688 -0.26171875 43.27734375 C-1.29842929 37.58019131 -2.77361294 33.09863732 -7 29 C-11.37245575 26.03394239 -15.72506741 24.52749326 -21 24 C-21 23.34 -21 22.68 -21 22 C-20.03900391 21.77957031 -20.03900391 21.77957031 -19.05859375 21.5546875 C-12.84238201 19.94273393 -8.18842132 17.99343824 -4 13 C-1.70869162 8.72289102 -0.58584598 4.80393707 0 0 Z " fill="#5CA3EF" transform="translate(340,90)"/>
<path d="M0 0 C0.66 0 1.32 0 2 0 C2.33 1.65 2.66 3.3 3 5 C4.32 5 5.64 5 7 5 C7 5.99 7 6.98 7 8 C5.68 8.33 4.36 8.66 3 9 C2.67 10.32 2.34 11.64 2 13 C1.34 13 0.68 13 0 13 C-0.268125 12.360625 -0.53625 11.72125 -0.8125 11.0625 C-1.88667752 8.66868314 -1.88667752 8.66868314 -5 8 C-5 7.01 -5 6.02 -5 5 C-4.360625 4.731875 -3.72125 4.46375 -3.0625 4.1875 C-0.66868314 3.11332248 -0.66868314 3.11332248 0 0 Z " fill="#AE52DE" transform="translate(318,81)"/>
<path d="M0 0 C0 0.99 0 1.98 0 3 C-1.32 3.33 -2.64 3.66 -4 4 C-4.33 5.32 -4.66 6.64 -5 8 C-5.66 8 -6.32 8 -7 8 C-7.33 6.35 -7.66 4.7 -8 3 C-4.93882432 0.37613513 -4.26826873 0 0 0 Z " fill="#7788E9" transform="translate(325,86)"/>
<path d="M0 0 C0.66 0 1.32 0 2 0 C1.75 1.875 1.75 1.875 1 4 C-1.0625 5.25 -1.0625 5.25 -3 6 C-2.42655063 3.13275314 -2.1385485 2.1385485 0 0 Z " fill="#9966E2" transform="translate(319,84)"/>
</svg>
